<svg xmlns="http://www.w3.org/2000/svg" viewBox="0 0 1200 320" role="img" aria-label="Aegis banner">
  <rect width="1200" height="320" fill="#000000"/>
  <!-- subtle grid (xAI technical field) -->
  <g stroke="#ffffff" stroke-opacity="0.04" stroke-width="1">
    <path d="M0 80 H1200 M0 160 H1200 M0 240 H1200"/>
    <path d="M200 0 V320 M400 0 V320 M600 0 V320 M800 0 V320 M1000 0 V320"/>
  </g>
  <!-- thin horizon -->
  <line x1="0" y1="319" x2="1200" y2="319" stroke="#ffffff" stroke-opacity="0.15" stroke-width="1"/>
  <!-- shield -->
  <path d="M100 70 L180 100 V160 C180 205 145 238 100 252 C55 238 20 205 20 160 V100 Z"
        fill="none" stroke="#ffffff" stroke-width="2.5" stroke-linejoin="round"/>
  <path d="M100 88 L162 112 V160 C162 192 136 216 100 228 C64 216 38 192 38 160 V112 Z"
        fill="#0a0a0a" stroke="#ffffff" stroke-opacity="0.2" stroke-width="1"/>
  <path d="M78 188 L100 130 L122 188 M88 168 H112"
        fill="none" stroke="#ffffff" stroke-width="6" stroke-linecap="round" stroke-linejoin="round"/>
  <!-- wordmark -->
  <text x="220" y="148" font-family="ui-sans-serif,system-ui,-apple-system,Segoe UI,sans-serif"
        font-size="72" font-weight="600" letter-spacing="0.04em" fill="#ffffff">AEGIS</text>
  <text x="220" y="196" font-family="ui-sans-serif,system-ui,-apple-system,Segoe UI,sans-serif"
        font-size="22" font-weight="400" letter-spacing="0.18em" fill="#ffffff" fill-opacity="0.45">
    GROK NATIVE · LEARN · HEAL · MISSIONS
  </text>
  <!-- right meta -->
  <text x="1120" y="148" text-anchor="end"
        font-family="ui-monospace,SFMono-Regular,Menlo,monospace"
        font-size="13" fill="#ffffff" fill-opacity="0.35">v0.5.2</text>
  <text x="1120" y="172" text-anchor="end"
        font-family="ui-monospace,SFMono-Regular,Menlo,monospace"
        font-size="13" fill="#ffffff" fill-opacity="0.25">RUST · XAI</text>
</svg>
